<svg width="43" height="41" viewBox="0 0 43 41" fill="none" xmlns="http://www.w3.org/2000/svg">
<path d="M39.4167 32.4583V15.375C39.4167 14.4688 39.0391 13.5998 38.3671 12.9591C37.6951 12.3183 36.7837 11.9583 35.8333 11.9583H23.7145C23.0489 11.9583 22.3965 11.7815 21.8303 11.4478C21.2642 11.1141 20.8067 10.6366 20.5092 10.0689L18.9075 7.01442C18.6098 6.44646 18.1521 5.96881 17.5856 5.63507C17.0191 5.30133 16.3663 5.1247 15.7004 5.125H7.16667C6.21631 5.125 5.30487 5.48497 4.63287 6.12572C3.96086 6.76647 3.58333 7.63551 3.58333 8.54167V32.4583C3.58333 33.3645 3.96086 34.2335 4.63287 34.8743C5.30487 35.515 6.21631 35.875 7.16667 35.875H35.8333C36.7837 35.875 37.6951 35.515 38.3671 34.8743C39.0391 34.2335 39.4167 33.3645 39.4167 32.4583Z" stroke="#0F0920" stroke-width="4" stroke-linecap="round" stroke-linejoin="round"/>
</svg>
