<svg width="72" height="72" viewBox="0 0 72 72" fill="none" xmlns="http://www.w3.org/2000/svg">
<path d="M38.64 52.917L23.52 37.785C14.686 28.952 11.48 20.088 14.94 16.619C15.862 15.706 17.16 15.25 18.732 15.25C19.3 15.25 19.899 15.31 20.537 15.422C24.797 16.203 30.457 19.55 36.105 25.199L39.564 28.658C38.732 29.986 37.921 31.447 37.241 33.008C34.706 38.748 33.752 45.908 38.641 52.917H38.64Z" fill="#FCEA2B" stroke="#FCEA2B" stroke-width="2" stroke-miterlimit="10" stroke-linecap="round"/>
<path d="M52.302 53.982C48.843 57.45 42.849 57.116 38.975 53.252L38.641 52.917C33.752 45.909 34.706 38.749 37.241 33.009C37.9061 31.5029 38.6826 30.0486 39.564 28.658L51.572 40.656C55.436 44.53 55.77 50.523 52.302 53.982Z" fill="#FCEA2B"/>
<path d="M55.983 56.193C52.312 60.493 45.831 60.686 41.916 56.761C41.7859 56.6339 41.6608 56.5018 41.541 56.365C40.4732 55.3047 39.5027 54.1507 38.641 52.917C33.752 45.909 34.706 38.749 37.241 33.008C37.9064 31.5026 38.6825 30.0486 39.563 28.658C42.17 24.51 45.081 21.7 45.638 21.173C45.669 21.143 45.73 21.163 45.73 21.213C45.76 22.553 46.217 33.83 55.253 43.018C58.773 46.598 59.239 52.369 55.983 56.193Z" fill="#5C9E31" stroke="#5C9E31" stroke-width="2" stroke-miterlimit="10"/>
<path d="M55.444 43.14C59.363 47.058 59.17 53.54 54.867 57.207C51.046 60.463 45.278 59.994 41.697 56.475C32.504 47.443 21.231 46.979 19.897 46.955C19.846 46.955 19.819 46.897 19.853 46.86C21.257 45.365 39.197 26.915 55.043 42.762C55.181 42.888 55.313 43.008 55.443 43.139L55.444 43.14Z" fill="#B1CC33"/>
<path d="M36.105 25.2C30.456 19.55 24.797 16.203 20.537 15.422C19.9414 15.3128 19.3375 15.2553 18.732 15.25C17.16 15.25 15.862 15.706 14.939 16.62C11.481 20.088 14.686 28.952 23.519 37.785" fill="#FCEA2B"/>
<path d="M55.444 43.14C59.363 47.058 59.17 53.54 54.867 57.207C51.046 60.463 45.278 59.994 41.697 56.475C32.504 47.443 21.231 46.979 19.897 46.955C19.846 46.955 19.819 46.897 19.853 46.86C21.257 45.365 39.197 26.915 55.043 42.762C55.181 42.888 55.313 43.008 55.443 43.139L55.444 43.14Z" stroke="black" stroke-width="2" stroke-miterlimit="10"/>
<path d="M37.487 32.46C38.0979 31.15 38.7912 29.8801 39.563 28.658C42.17 24.51 45.081 21.7 45.639 21.173C45.669 21.143 45.729 21.163 45.729 21.213C45.749 22.084 45.949 27.159 48.573 33.129L48.835 33.689M36.105 25.2C30.456 19.55 24.797 16.203 20.537 15.422C19.9414 15.3128 19.3375 15.2553 18.732 15.25C17.16 15.25 15.862 15.706 14.939 16.62C11.481 20.088 14.686 28.952 23.519 37.785" stroke="black" stroke-width="2" stroke-miterlimit="10" stroke-linecap="round"/>
</svg>
